<svg xmlns="http://www.w3.org/2000/svg" version="1.1" xmlns:xlink="http://www.w3.org/1999/xlink" xmlns:svgjs="http://svgjs.dev/svgjs" width="100%" height="100%" viewBox="0 0 1000 600"><rect width="1000" height="600" x="0" y="0" fill="#ffffff"/><g><circle r="166.66666666666666" cx="352.93383280436194" cy="375.1560401992301" fill="#a04ef6" transform="matrix(0.6710792164014208,0,0,0.6710792164014208,0,48.24058995893256)"/><path d="M341.9223502077274 382.74966138332115L352.1759659692368 422.3375344103661L354.7616603786609 422.3375344103661L365.4610855211055 385.54340017051504L387.92987832023914 300.1560434087281L413.8165430398759 303.9900040847707L388.3459670757786 388.9612720910182L371.6429756034068 447.3623009935282L332.05510257636183 450.1560397807221L316.8678629991697 393.03299777022625L292.05114079377734 305.5057559799504L322.42561994816174 300.1560434087281L341.9223502077274 382.74966138332115Z " fill="#e7d045" transform="matrix(0.6710792164014208,0,0,0.6710792164014208,0,48.24058995893256)"/><path d="M638.1022094891828 370.17839666954103L645.3328927671851 398.09512167330666L647.156282463377 398.09512167330666L654.7013432752055 372.1484958815185L670.5459709800455 311.93471890267557L688.8008264442196 314.6383656935808L670.8393900116166 374.5587236408526L659.060711744262 415.74218057208344L631.1439867404963 417.7122797840609L620.4341920881509 377.4300384497985L602.9338427051596 315.70724930858984L624.3534320098506 311.93471890267557L638.1022094891828 370.17839666954103ZM699.8040401281362 343.9173933439266L720.0289948042878 340.14486293801235L718.2265636103509 377.72345748136956L719.8822852885022 413.1852432969638L699.6573306123506 416.95777370287806L701.4807203085426 380.2803947564892L699.8040401281362 343.9173933439266ZM698.7561150153823 318.03364305890364Q698.7561150153823 312.98264401542957 702.6753549370821 308.9795700847094Q706.5945948587819 304.9974546562443 711.7294279112764 304.9974546562443Q716.8642609637708 304.9974546562443 719.5888662569312 307.7849354561698Q722.2925130478363 310.5724162560954 722.2925130478363 316.1473778559465Q722.2925130478363 321.74329795805266 718.4571071351569 325.74637188877284Q714.6007427202222 329.7284873172379 709.5497436767481 329.7284873172379Q704.498744633274 329.7284873172379 701.6274298243281 326.41704396093536Q698.7561150153823 323.10560060463285 698.7561150153823 318.03364305890364ZM734.9724069121594 344.0641028597122L734.9724069121594 344.0641028597122L753.2272623763334 340.14486293801235Q754.5895650229136 351.77683168958134 755.0506520725253 362.17224880810073L755.0506520725253 362.17224880810073Q768.7784710496023 340.8993690191952 780.850568348528 340.8993690191952L780.850568348528 340.8993690191952L779.1948466703767 364.4357670516493Q770.4341927277535 364.4357670516493 765.3831936842795 366.0286132230353Q760.3321946408054 367.6214593944213 755.0506520725253 372.295205397304L755.0506520725253 372.295205397304L755.0506520725253 377.72345748136956L756.7063737506767 413.1852432969638L736.4814190745251 416.95777370287806L738.2838502684618 380.2803947564892Q737.6970122053197 360.0763985825928 734.9724069121594 344.0641028597122ZM787.4944135633882 343.9173933439266L796.2341090037562 343.9173933439266L796.2341090037562 327.46496907368936L816.6057731956934 323.5457291519895L814.6566324859709 343.9173933439266L832.9114879501451 343.9173933439266L831.2557662719937 356.3038681766785L814.0488359205737 356.3038681766785L813.2943298393908 387.8254555683178Q813.2943298393908 394.9303878327897 814.6566324859709 397.25678158310353Q815.9979766302961 399.60413383567237 819.6237975204248 399.60413383567237Q823.2496184105535 399.60413383567237 829.2856670600163 397.9484121575211L829.2856670600163 397.9484121575211L830.1868826569847 408.65820680986667Q820.231594085822 416.95777370287806 812.6865332739935 416.95777370287806Q805.141472462165 416.95777370287806 800.3210169434967 411.4456876097922Q795.4796029225733 405.93360151670635 795.4796029225733 397.0471965605527L795.4796029225733 397.0471965605527L796.3808185195418 380.1336852407037L796.2341090037562 356.3038681766785L785.8177333829818 356.3038681766785L787.4944135633882 343.9173933439266ZM862.0228475824501 416.95777370287806L862.0228475824501 416.95777370287806Q853.8909487074794 416.95777370287806 848.8189911617502 411.59239712557775Q843.7679921182762 406.24797905053254 843.7679921182762 397.4873251079094L843.7679921182762 397.4873251079094L844.6692077152445 380.1336852407037L843.0134860370933 343.9173933439266L863.2384407132449 340.14486293801235L861.2683415012674 386.023024374381Q861.2683415012674 392.5201600734556 863.6156937538362 395.538184398187Q865.9630460064052 398.5562087229184 871.0769205566445 398.5562087229184Q876.2117536091389 398.5562087229184 885.2658265833331 393.42137567042397L885.2658265833331 393.42137567042397L885.2658265833331 384.36730269622973L883.610104905182 344.6718994251095L903.981769097119 340.8993690191952L902.1793379031822 378.624673078338L902.3260474189678 391.01114791108984Q902.3260474189678 400.6520589484264 907.2932124534216 410.46063800380347L907.2932124534216 410.46063800380347L891.6162527666222 417.4188607524898Q886.6281292299134 407.61028169711267 885.5802041171594 401.7209425634354L885.5802041171594 401.7209425634354Q871.999094655868 416.95777370287806 862.0228475824501 416.95777370287806ZM935.96444353837 416.95777370287806Q927.0780385822165 416.95777370287806 921.419242973345 411.29897809400666Q915.7604473644736 405.6401824851352 915.7604473644736 396.06214695456396Q915.7604473644736 386.4841114239927 924.5001428048417 379.4630131685412Q933.2607967474648 372.4419149130896 945.7730225937472 372.4419149130896L945.7730225937472 372.4419149130896L956.0426886987361 372.4419149130896L956.0426886987361 369.8849776379699Q956.0426886987361 362.4866263419269 953.0246643740047 359.7620210487666Q950.0066400492733 357.0583742578614 941.7070731562618 357.0583742578614L941.7070731562618 357.0583742578614Q938.2279617819187 357.0583742578614 933.4913402722707 358.48355241120674Q928.7337602603677 359.9087305645522 922.8444211266903 362.9267548892836L922.8444211266903 362.9267548892836L918.4640941553789 351.0223256083985Q924.9612298544534 346.49528912130137 934.2458463534535 342.8694682311727Q943.5095043501988 339.2436473410439 949.5455529996616 339.2436473410439L949.5455529996616 339.2436473410439Q973.2496190501563 339.2436473410439 973.2496190501563 362.17224880810073L973.2496190501563 362.17224880810073L973.2496190501563 391.76565399227275Q973.2496190501563 400.21193040106965 978.5311616184363 410.6283060218441L978.5311616184363 410.6283060218441L962.5398243978107 417.4188607524898Q958.7672939918964 410.1672189722324 956.9439042957046 404.42458935434064L956.9439042957046 404.42458935434064Q948.644337402693 416.95777370287806 935.96444353837 416.95777370287806L935.96444353837 416.95777370287806ZM942.3148697216591 401.57423304764984L942.3148697216591 401.57423304764984Q948.3509183711219 401.57423304764984 956.0426886987361 395.37051638014634L956.0426886987361 395.37051638014634L956.0426886987361 385.26851829319816Q948.0365408372958 383.4660870992613 943.0693758028419 383.4660870992613L943.0693758028419 383.4660870992613Q933.554215779036 383.4660870992613 933.554215779036 391.91236350805826L933.554215779036 391.91236350805826Q933.554215779036 396.29269047936987 935.96444353837 398.93346176350985Q938.3956297999592 401.57423304764984 942.3148697216591 401.57423304764984ZM991.6511840301159 303.9285710412353L1012.3372257558792 300.156040635321L1010.3671265439017 377.72345748136956L1012.022848222053 413.1852432969638L991.6511840301159 416.95777370287806L993.4745737263077 380.2803947564892L991.6511840301159 303.9285710412353ZM1029.8375751388705 303.9285710412353L1050.5026583623785 300.156040635321L1048.5535176526562 377.72345748136956L1050.2092393308076 413.1852432969638L1029.8375751388705 416.95777370287806L1031.6400063328072 380.2803947564892L1029.8375751388705 303.9285710412353ZM1089.5902650681014 450.1560412749237L1070.119816473133 446.09009183743837L1085.6710251464017 411.2151440849863L1074.5001434444446 380.741481806101L1059.2633123050018 344.0641028597122L1079.3205989631128 340.29157245379787L1088.9824685027043 372.4419149130896L1093.970592039413 387.67874605253223L1095.9197327491356 387.67874605253223L1099.5455536392642 376.6755323686156L1110.4230163096504 340.14486293801235L1128.9712908053957 342.4083811815609L1102.2701589324247 412.57744673156645L1089.5902650681014 450.1560412749237ZM1166.8433043803238 370.17839666954103L1174.0949461605815 398.09512167330666L1175.897377354518 398.09512167330666L1183.4424381663468 372.1484958815185L1199.2870658711868 311.93471890267557L1217.5628798376158 314.6383656935808L1199.601443405013 374.5587236408526L1187.8227651376583 415.74218057208344L1159.9060401338925 417.7122797840609L1149.196245481547 377.4300384497985L1131.695896098556 315.70724930858984L1153.115485403247 311.93471890267557L1166.8433043803238 370.17839666954103ZM1258.8930462846322 376.82224188440114L1258.8930462846322 376.82224188440114L1250.3000603600497 376.82224188440114L1250.3000603600497 377.72345748136956L1252.1024915539867 416.95777370287806L1231.8984953800903 416.95777370287806L1233.7009265740269 380.2803947564892L1231.8984953800903 312.835934499644L1264.635675902524 312.835934499644Q1279.118000960784 312.835934499644 1287.7319453876214 320.6744143430437Q1296.324931312204 328.5338526886984 1296.324931312204 341.5071655845925L1296.324931312204 341.5071655845925Q1296.324931312204 351.31574463996964 1291.27393226873 359.3847680081752Q1286.2229332252557 367.4537913763807 1277.6089887984183 372.1484958815185L1277.6089887984183 372.1484958815185L1303.8699921240325 409.26600337526395L1285.6151366598585 418.61349538102934L1262.0787386274044 376.6755323686156Q1261.0098550123955 376.82224188440114 1258.8930462846322 376.82224188440114ZM1259.2074238184584 328.07276563908664L1259.2074238184584 328.07276563908664L1251.8090725224156 328.07276563908664L1250.7611474096616 362.17224880810073L1261.0098550123955 362.17224880810073Q1268.554915824224 362.17224880810073 1272.7046992707296 357.2050837736469Q1276.8544827172352 352.216960236938 1276.8544827172352 343.0161777469582L1276.8544827172352 343.0161777469582Q1276.8544827172352 328.07276563908664 1259.2074238184584 328.07276563908664Z " fill="#a04ef6" transform="matrix(0.6710792164014208,0,0,0.6710792164014208,0,48.24058995893256)"/></g></svg>